<?xml version="1.0" standalone="no"?>
<!DOCTYPE svg PUBLIC "-//W3C//DTD SVG 20010904//EN"
 "http://www.w3.org/TR/2001/REC-SVG-20010904/DTD/svg10.dtd">
<svg version="1.0" xmlns="http://www.w3.org/2000/svg"
 width="240.000000pt" height="240.000000pt" viewBox="0 0 240.000000 240.000000"
 preserveAspectRatio="xMidYMid meet">
<metadata>
Created by potrace 1.14, written by Peter Selinger 2001-2017
</metadata>
<g transform="translate(0.000000,240.000000) scale(0.100000,-0.100000)"
fill="#000000" stroke="none">
<path d="M389 2241 c-63 -22 -138 -75 -170 -119 -67 -93 -75 -250 -20 -410 28
-84 30 -96 17 -120 -25 -50 -86 -229 -102 -297 -93 -417 2 -723 284 -912 67
-44 159 -93 178 -93 7 0 14 -4 16 -8 6 -16 160 -64 294 -92 156 -33 392 -39
554 -15 34 5 56 9 110 21 14 3 35 7 48 10 33 7 166 51 188 62 11 5 50 25 88
43 218 106 365 281 421 502 27 109 27 291 0 430 -27 140 -68 271 -111 362 -15
33 -15 36 9 89 81 176 58 348 -58 455 -133 121 -239 128 -450 31 -78 -36 -128
-41 -186 -16 -37 15 -43 17 -139 35 -142 27 -337 17 -462 -23 -87 -29 -97 -28
-187 15 -146 69 -230 82 -322 50z"/>
</g>
</svg>
